<svg width="546" height="106" viewBox="0 0 546 106" fill="none" xmlns="http://www.w3.org/2000/svg">
    <g clip-path="url(#clip0_240:599)">
        <path d="M68.8236 9.19815C67.7755 8.11179 66.6163 7.13322 65.3644 6.27779C49.5354 -4.91705 29.3338 -0.0226924 15.8293 12.1726C8.91094 18.419 2.98887 26.6124 0.775013 35.671C-1.43885 44.7296 1.19011 54.0045 8.5512 60.0077C10.3858 61.5044 12.4743 62.6757 14.7223 63.4688C15.8139 63.8182 16.8854 64.2243 17.9324 64.6856C13.2557 58.4121 16.2997 50.4895 21.1978 45.3516C26.096 40.2138 33.5124 37.8612 40.4031 36.4281C51.0021 34.1838 78.5368 29.6409 71.4526 13.092C70.8165 11.6535 69.9266 10.3354 68.8236 9.19815Z" fill="#9D2EFB"/>
        <path d="M3.7936 95.1803C4.8415 96.2668 6.00064 97.2454 7.25276 98.101C23.0818 109.296 43.2831 104.401 56.7877 92.2061C63.706 85.9598 69.6282 77.7662 71.8419 68.7075C74.0561 59.6489 71.4271 50.374 64.0659 44.3712C62.2312 42.8745 60.1427 41.7029 57.8948 40.9101C56.8032 40.5608 55.7315 40.1546 54.6846 39.6931C59.3614 45.9664 56.3176 53.8895 51.4191 59.0274C46.521 64.1648 39.1046 66.5175 32.214 67.9505C21.6152 70.1949 -5.91969 74.738 1.16464 91.2868C1.80044 92.7254 2.69033 94.0431 3.7936 95.1803Z" fill="#C776FE"/>
        <path d="M145.943 45.1204C150.239 45.8215 153.866 46.6272 156.824 47.5388C159.782 48.4501 162.564 49.7118 165.17 51.3241C167.776 52.8662 169.713 54.969 170.981 57.6324C172.319 60.2261 172.988 63.3448 172.988 66.9901C172.988 73.5792 170.488 79.0112 165.487 83.2869C160.557 87.5631 153.549 89.7007 144.463 89.7007C133.054 89.7007 123.405 85.7755 115.517 77.9247L122.278 66.149C125.165 69.443 128.687 71.9665 132.842 73.7191C136.998 75.4012 140.942 76.2426 144.675 76.2426C149.323 76.2426 152.95 75.4718 155.557 73.9293C158.162 72.3872 159.466 70.3546 159.466 67.8311C159.466 63.3448 154.676 60.401 145.098 58.9993C135.378 57.5273 128.44 55.0387 124.285 51.5342C120.13 47.9596 118.052 43.3682 118.052 37.7606C118.052 31.5923 120.482 26.3703 125.342 22.0945C130.202 17.8187 136.857 15.6809 145.309 15.6809C154.465 15.6809 162.564 18.5547 169.607 24.3025L163.902 35.8681C158.691 31.382 152.422 29.139 145.098 29.139C141.154 29.139 137.914 29.7698 135.378 31.0315C132.842 32.2231 131.575 34.1508 131.575 36.8143C131.575 39.1275 132.631 40.88 134.744 42.0715C136.857 43.2631 140.59 44.2794 145.943 45.1204ZM222.05 35.8681H235.573V88.0183H222.05V82.4459C217.825 87.2823 212.471 89.7007 205.992 89.7007C198.737 89.7007 192.539 87.002 187.398 81.6049C182.327 76.1376 179.792 69.5838 179.792 61.9431C179.792 54.3028 182.327 47.7839 187.398 42.3868C192.539 36.9195 198.737 34.1858 205.992 34.1858C212.471 34.1858 217.825 36.604 222.05 41.4406V35.8681ZM197.54 72.0367C200.357 74.8409 203.738 76.2426 207.682 76.2426C211.626 76.2426 215.007 74.8409 217.825 72.0367C220.641 69.2328 222.05 65.8683 222.05 61.9431C222.05 58.0183 220.641 54.6537 217.825 51.8495C215.007 49.0456 211.626 47.6439 207.682 47.6439C203.738 47.6439 200.357 49.0456 197.54 51.8495C194.723 54.6537 193.315 58.0183 193.315 61.9431C193.315 65.8683 194.723 69.2328 197.54 72.0367ZM277.854 34.1858C285.108 34.1858 291.271 36.9195 296.342 42.3868C301.483 47.7839 304.054 54.3028 304.054 61.9431C304.054 69.5838 301.483 76.1376 296.342 81.6049C291.271 87.002 285.108 89.7007 277.854 89.7007C271.374 89.7007 266.022 87.2823 261.795 82.4459V88.0183H248.273V13.9986H261.795V41.4406C266.022 36.604 271.374 34.1858 277.854 34.1858ZM266.021 72.0367C268.838 74.8409 272.219 76.2426 276.164 76.2426C280.107 76.2426 283.488 74.8409 286.305 72.0367C289.122 69.2328 290.532 65.8683 290.532 61.9431C290.532 58.0183 289.122 54.6537 286.305 51.8495C283.488 49.0456 280.107 47.6439 276.164 47.6439C272.219 47.6439 268.838 49.0456 266.021 51.8495C263.204 54.6537 261.795 58.0183 261.795 61.9431C261.795 65.8683 263.204 69.2328 266.021 72.0367ZM326.685 26.5105C324.924 28.2628 322.741 29.139 320.134 29.139C317.529 29.139 315.31 28.2628 313.479 26.5105C311.718 24.688 310.838 22.48 310.838 19.8865C310.838 17.293 311.718 15.1201 313.479 13.3677C315.31 11.5453 317.529 10.634 320.134 10.634C322.741 10.634 324.924 11.5453 326.685 13.3677C328.516 15.1201 329.432 17.293 329.432 19.8865C329.432 22.48 328.516 24.688 326.685 26.5105ZM313.373 88.0183V35.8681H326.896V88.0183H313.373ZM343.507 42.2817C348.93 36.8845 355.516 34.1858 363.263 34.1858C371.011 34.1858 377.596 36.8845 383.019 42.2817C388.442 47.6788 391.154 54.233 391.154 61.9431C391.154 69.6535 388.442 76.2077 383.019 81.6049C377.596 87.002 371.011 89.7007 363.263 89.7007C355.516 89.7007 348.93 87.002 343.507 81.6049C338.084 76.2077 335.372 69.6535 335.372 61.9431C335.372 54.233 338.084 47.6788 343.507 42.2817ZM353.121 72.0367C355.938 74.8409 359.319 76.2426 363.263 76.2426C367.207 76.2426 370.588 74.8409 373.405 72.0367C376.222 69.2328 377.631 65.8683 377.631 61.9431C377.631 58.0183 376.222 54.6537 373.405 51.8495C370.588 49.0456 367.207 47.6439 363.263 47.6439C359.319 47.6439 355.938 49.0456 353.121 51.8495C350.304 54.6537 348.895 58.0183 348.895 61.9431C348.895 65.8683 350.304 69.2328 353.121 72.0367ZM428.992 34.1858C435.121 34.1858 439.908 36.1835 443.361 40.1789C446.884 44.1743 448.645 50.0274 448.645 57.7375V88.0183H435.121V59.42C435.121 55.354 434.312 52.3753 432.689 50.4826C431.07 48.59 428.5 47.6439 424.978 47.6439C421.598 47.6439 418.779 48.7657 416.526 51.0084C414.273 53.2512 413.146 56.6157 413.146 61.102V88.0183H399.624V35.8681H413.146V40.9148C416.949 36.4288 422.232 34.1858 428.992 34.1858ZM509.514 61.9431C509.514 62.9245 509.445 64.3266 509.302 66.149H471.165C472.149 69.7237 473.946 72.5973 476.554 74.7703C479.23 76.8735 482.61 77.9247 486.693 77.9247C492.542 77.9247 497.752 76.3128 502.331 73.0882L506.24 84.7588C505.674 85.1094 504.865 85.5654 503.808 86.1257C502.823 86.6863 500.603 87.4223 497.154 88.3339C493.774 89.2451 490.215 89.7007 486.481 89.7007C476.765 89.7007 469.44 87.1071 464.511 81.9201C459.577 76.7335 457.112 70.0738 457.112 61.9431C457.112 53.8123 459.439 47.153 464.088 41.9664C468.736 36.7793 475.427 34.1858 484.159 34.1858C492.33 34.1858 498.598 36.6391 502.966 41.5457C507.33 46.3822 509.514 53.1814 509.514 61.9431ZM471.482 56.0554H495.145C495.145 53.5319 494.091 51.2186 491.976 49.1158C489.935 47.013 487.047 45.9619 483.313 45.9619C480.145 45.9619 477.363 47.0832 474.967 49.3264C472.645 51.4993 471.482 53.7421 471.482 56.0554ZM521.341 73.1933V47.6439H514.577V35.8681H521.341V17.3631H534.864V35.8681H545.008V47.6439H534.864V69.5136C534.864 73.2282 535.71 75.5416 537.402 76.4528C539.159 77.364 541.693 77.2938 545.008 76.2426V88.0183C542.189 89.1401 538.879 89.7007 535.076 89.7007C530.427 89.7007 526.974 88.2288 524.721 85.2846C522.468 82.2706 521.341 78.2403 521.341 73.1933Z" fill="white"/>
    </g>
    <defs>
        <clipPath id="clip0_240:599">
            <rect width="545" height="105.484" fill="white" transform="translate(0.0146484)"/>
        </clipPath>
    </defs>
</svg>